<svg width="533" height="596" fill="none" xmlns="http://www.w3.org/2000/svg"><path d="M495.954 489.782c-30.752 37.464-82.602 47.477-119.734 49.959-37.045 2.392-75.376-4.629-110.692 6.375-37.003 11.455-66.902 41.451-104.903 48.201-32.942 5.75-67.034-7.155-93.343-27.916C26.705 534.509 1.504 483.885.557 432.172c-.846-49.136 18.757-95.879 29.913-143.737 13.51-57.734 15.01-118.344 34.66-174.239C84.78 58.3 129.68 4.955 188.842.594c52.854-4.064 100.023 31.352 138.931 67.428 47.208 43.947 90.703 92.176 129.504 143.714 30.754 40.735 59.213 84.856 70.636 134.566 11.423 49.71 3.151 106.441-31.958 143.48z" fill="#F7DBD1"/></svg>