<svg width="746" height="681" viewBox="0 0 746 681" fill="none" xmlns="http://www.w3.org/2000/svg">
<path d="M661.276 62.9562C704.172 107.037 709.467 173.841 707.345 221.021C705.123 268.076 690.847 315.424 699.729 361.518C708.943 409.803 742.542 451.751 745.681 500.63C748.273 542.986 727.176 584.156 697.273 614.399C651.314 661.062 583.907 685.684 518.557 679.565C456.47 673.683 400.295 642.352 341.517 621.515C270.619 596.313 194.394 585.849 126.683 553.163C58.971 520.478 -1.95464 456.312 0.914031 381.086C3.26341 313.856 54.5986 259.378 105.598 215.412C167.697 162.092 234.671 114.059 305.155 72.4149C360.876 39.3908 420.544 9.7399 484.849 2.36349C549.155 -5.01291 619.53 13.4417 661.276 62.9562Z" fill="#FEF0A5"/>
</svg>
