<svg width="533" height="596" viewBox="0 0 533 596" fill="none" xmlns="http://www.w3.org/2000/svg">
<path d="M495.954 489.782C465.202 527.246 413.352 537.259 376.22 539.741C339.175 542.133 300.844 535.112 265.528 546.116C228.525 557.571 198.626 587.567 160.625 594.317C127.683 600.067 93.5906 587.162 67.2819 566.401C26.7046 534.509 1.50372 483.885 0.557008 432.172C-0.289091 383.036 19.3138 336.293 30.4698 288.435C43.98 230.701 45.4809 170.091 65.1309 114.196C84.7809 58.3004 129.679 4.95452 188.841 0.594379C241.695 -3.47013 288.864 31.9459 327.772 68.0221C374.98 111.969 418.475 160.198 457.276 211.736C488.03 252.471 516.489 296.592 527.912 346.302C539.335 396.012 531.063 452.743 495.954 489.782Z" fill="#F7DBD1"/>
</svg>
