<svg width="746" height="681" fill="none" xmlns="http://www.w3.org/2000/svg"><path d="M661.276 62.956c42.896 44.081 48.191 110.885 46.069 158.065-2.222 47.055-16.498 94.403-7.616 140.497 9.214 48.285 42.813 90.233 45.952 139.112 2.592 42.356-18.505 83.526-48.408 113.769-45.959 46.663-113.366 71.285-178.716 65.166-62.087-5.882-118.262-37.213-177.04-58.05-70.898-25.202-147.123-35.666-214.834-68.352C58.971 520.478-1.955 456.312.914 381.086c2.35-67.23 53.685-121.708 104.684-165.674 62.099-53.32 129.073-101.353 199.557-142.997C360.876 39.39 420.544 9.74 484.849 2.363c64.306-7.376 134.681 11.079 176.427 60.593z" fill="#FEF0A5"/></svg>