<svg width="330" height="306" fill="none" xmlns="http://www.w3.org/2000/svg"><path d="M319.518 194H10.482C4.66 194 0 198.699 0 204.573v7.049c0 5.875 4.659 10.574 10.482 10.574h26.789v80.28c0 1.958 1.553 3.524 3.494 3.524 1.94 0 3.494-1.566 3.494-3.524v-36.42h242.259v36.42c0 1.958 1.553 3.524 3.494 3.524 1.941 0 3.494-1.566 3.494-3.524v-80.28h26.788c5.047 0 9.706-4.699 9.706-10.574v-7.049c0-5.874-4.659-10.573-10.482-10.573zM43.871 222.196h33.388L43.87 255.874v-33.678zm6.988 36.419l36.106-36.419h156.07l36.106 36.419H50.859zm235.27-3.132l-33.388-33.679h33.388v33.679z" fill="#FFA788"/><path d="M219.15 51.402c7.332.509 15.049.89 22.638.509C229.44 21.502 199.471 0 164.484 0c-33.056 0-61.74 19.085-75.117 46.821 9.904 4.326 19.809 8.398 30.484 9.416l99.299-4.835z" fill="#fff"/><path d="M99.4 82.447c6.303-.51 12.605-1.655 19.037-1.273 5.659.382 11.19 1.909 16.85 2.926 10.032 1.782 20.322 1.654 30.227-.508 7.589-1.527 15.049-4.2 22.638-4.326 8.232-.128 16.335 2.671 24.567 1.908 7.589-.636 15.049-4.326 22.767-3.308 4.245.636 8.232 2.672 12.219 4.326 0-10.688-2.058-20.993-5.916-30.408-7.589.381-15.307 0-22.639-.51l-99.17 4.835c-10.804-.89-20.709-4.962-30.484-9.415-5.016 10.433-7.846 22.139-8.103 34.353 6.945 1.018 13.891 1.781 18.007 1.4z" fill="#F7DBD1"/><path d="M83.066 99.241c6.303-1.145 12.477-2.545 17.879-3.562 11.062-2.036 22.509-2.036 33.7 0 8.618 1.526 17.236 4.198 25.982 4.071 9.261-.127 18.265-3.435 27.397-4.453 13.249-1.527 26.369 1.908 39.488 4.326 5.789 1.145 11.705 2.035 17.622 2.417 1.544-6.361 2.444-12.978 2.444-19.72-3.987-1.655-7.975-3.69-12.219-4.327-7.589-1.145-15.05 2.545-22.767 3.308-8.232.636-16.335-2.035-24.568-1.908-7.717.127-15.049 2.799-22.638 4.326-9.904 2.035-20.194 2.29-30.227.509-5.659-1.018-11.19-2.545-16.85-2.927-6.302-.381-12.733.764-19.036 1.273-4.116.381-11.062-.382-18.136-1.273v1.018c.128 5.726.772 11.451 1.93 16.922z" fill="#FFBFA8"/><path d="M188.023 95.297c-9.261 1.018-18.136 4.326-27.397 4.453-8.747.127-17.236-2.545-25.983-4.071-11.062-1.909-22.509-1.909-33.7 0-5.402.89-11.576 2.417-17.879 3.562 1.544 7.38 4.117 14.25 7.46 20.739 1.416.127 2.83.382 4.117.636 9.261 1.654 18.393 4.326 27.654 5.726 10.548 1.654 21.352 1.526 31.899-.255 9.647-1.654 19.166-4.708 28.812-6.743 17.236-3.563 34.987-3.944 52.222-.891 1.158.255 2.316.382 3.473.636 2.701-5.343 4.888-11.069 6.303-16.922-5.917-.381-11.834-1.272-17.622-2.417-12.991-2.545-26.111-5.98-39.359-4.453z" fill="#FFDFAF"/><path d="M183.136 119.344c-9.647 2.035-19.165 5.089-28.812 6.743-10.547 1.781-21.352 1.909-31.899.255-9.261-1.4-18.394-4.072-27.655-5.726-1.286-.254-2.7-.382-4.116-.636 13.892 26.464 41.675 44.404 73.831 44.404 32.543 0 60.712-18.449 74.346-45.422-1.158-.254-2.315-.382-3.473-.636-17.236-2.926-35.115-2.672-52.222 1.018z" fill="#FEF0A5"/></svg>