<svg width="598" height="593" fill="none" xmlns="http://www.w3.org/2000/svg"><path d="M597.109 245.5c-42.384 18.476-94.187 17.061-140.314 14.162l-290.168 13.526C107.7 268.236 57.346 232.974.109 218v374.482h597V245.5z" fill="#F7DBD1"/><path d="M597.156 344c-13.163 7.004-27.004 9.392-41.737 6.493-17.632-3.622-33.451-14.491-51.324-16.906-22.22-3.14-44.078 7.246-66.419 9.057-23.911 1.932-47.701-5.797-71.732-5.434-22.462.362-44.199 7.728-66.299 12.076-29.103 5.796-59.173 6.28-88.397 1.328-16.424-2.656-32.606-7.125-49.15-8.091-18.598-1.087-37.074 2.174-55.551 3.623-24.152 1.812-82.118-8.212-106.39-8.212V592.5H597.08l.075-248.5z" fill="#FFA788"/><path d="M.23 398.794v194.185h596.926V393.36c-36.712 12.801-77.529 8.091-115.811 1.087-38.161-7.004-76.804-16.303-115.448-12.197-26.93 2.898-53.135 12.197-80.307 12.559-25.601.363-50.599-7.245-75.838-11.472-32.485-5.434-65.936-5.434-98.421.121-33.21 5.555-77.408 17.027-111.1 15.336z" fill="#FFDFAF"/><path d="M597.156 459.779c-30.795.121-62.313-8.212-92.745-13.284-50.479-8.332-102.527-7.487-152.764 2.536-28.258 5.676-56.033 14.25-84.412 18.839a310.948 310.948 0 01-93.47.725c-27.171-3.985-53.739-11.473-80.91-15.941-27.172-4.347-66.66-5.555-92.625 3.14v137.065h596.926v-133.08z" fill="#FEF0A5"/><path d="M597.156.757c-3.503 6.521-17.994 26.809-26.81 38.523-8.936 11.834-16.785 24.635-26.084 36.35-16.061 20.046-34.659 40.092-52.29 58.569-17.51 18.355-36.47 36.953-55.309 54.463-15.699 14.612-32.364 15.699-52.169 20.53-20.046 4.83-41.3 8.453-61.83 13.042-15.94 3.502-36.108 18.114-55.671 26.205-18.839 7.729-42.267 10.99-62.313 14.975-9.903 1.932-27.413-2.536-30.674 1.932-7.97 10.868 9.178 21.012 20.771 19.805 12.077-1.208 21.496 1.207 40.576-1.932 11.835-1.933 29.466-13.767 46.614-10.869 11.835 1.932 25.723.966 45.648-3.985-2.777 5.313-8.936 10.144-15.578 15.216-3.864 2.898-13.888 9.782-20.046 15.578-17.873 16.907-26.809 26.809-17.873 34.659 6.4 5.676 26.809 3.019 45.648-15.82 11.955-12.318 41.421-26.809 60.26-26.809 31.277 0 47.942-10.144 74.631-28.258 27.292-18.598 48.908-44.441 76.321-62.917 15.095-10.144 27.896-23.066 43.112-33.21 13.888-9.298 11.835-6.883 23.066-16.786V.757z" fill="#fff"/></svg>