<svg width="342" height="399" fill="none" xmlns="http://www.w3.org/2000/svg"><path d="M4.352 397.144c53.693 5.159 109.193-9.286 154.109-39.465 12.906-8.512 24.781-18.313 35.623-29.147 3.613-3.611-2.066-9.028-5.421-5.417-37.172 37.144-87.251 60.874-139.653 66.033-14.714 1.547-29.686 1.547-44.658.258-4.904-.516-4.904 7.222 0 7.738z" fill="#FFDFAF"/><path d="M173.175 329.822c6.97-.516 13.939-1.032 21.167-1.548l-3.872-3.869c.516 6.707.516 13.413-.258 20.12-.258 2.063 1.807 3.869 3.872 3.869 2.323 0 3.614-1.806 3.872-3.869.774-6.707.774-13.413.258-20.12-.258-2.063-1.549-4.127-3.872-3.869-6.97.516-13.939 1.032-21.167 1.548-2.065.258-3.872 1.548-3.872 3.869.258 1.806 1.807 3.869 3.872 3.869z" fill="#FFDFAF"/><path d="M341.996 177.896H92.119V302.48h249.877V177.896z" fill="#FEF0A5"/><path d="M217.574 198.531h-41.56V302.48h41.56V198.531z" fill="#FFDFAF"/><path d="M211.122 264.821h-28.653v33.274h28.653v-33.274zm0-37.659h-28.653v33.274h28.653v-33.274zm0-21.667h-28.653v16.766h28.653v-16.766zm121.322-7.996h-88.542V302.48h88.542V197.499zm-161.594 0h-58.856V302.48h58.856V197.499z" fill="#FFBFA8"/><path d="M341.996 154.165H92.119v26.052h249.877v-26.052z" fill="#FFDFAF"/><path d="M318.766 36.803c0-20.12-16.521-36.627-36.655-36.627-20.135 0-36.656 16.508-36.656 36.627 0 20.12 36.656 89.247 36.656 89.247s36.655-69.128 36.655-89.247z" fill="#FFBFA8"/><path d="M300.178 27.775c2.323.258 4.905.258 7.486.258-4.13-10.317-14.198-17.54-25.814-17.54-11.1 0-20.651 6.449-25.297 15.992 3.356 1.548 6.711 2.838 10.325 3.096l33.3-1.806z" fill="#FBF5F1"/><path d="M260.166 38.35c2.065-.257 4.13-.515 6.453-.515 1.807 0 3.872.774 5.679 1.032 3.356.515 6.712.515 10.068-.258 2.581-.516 4.904-1.548 7.486-1.548 2.839 0 5.42.774 8.26.774 2.581-.258 5.163-1.548 7.744-1.032 1.549.258 2.84 1.032 4.13 1.548 0-3.611-.774-7.223-2.065-10.318-2.581.258-5.163 0-7.486-.258l-33.3 1.548c-3.614-.258-6.969-1.806-10.325-3.096-1.807 3.612-2.581 7.48-2.581 11.608 2.065.516 4.388.774 5.937.516z" fill="#F7DBD1"/><path d="M254.487 44.025c2.065-.515 4.131-.773 5.937-1.29 3.614-.773 7.486-.773 11.359 0 2.839.517 5.679 1.548 8.776 1.29 3.098 0 6.196-1.29 9.293-1.547 4.389-.516 8.777.516 13.165 1.547 2.065.258 3.872.774 5.937.774.517-2.063.775-4.385.775-6.706-1.291-.516-2.582-1.29-4.13-1.548-2.582-.258-5.163.774-7.745 1.032-2.839.258-5.42-.774-8.26-.774-2.581 0-5.163 1.032-7.486 1.548-3.356.774-6.712.774-10.067.258-1.807-.258-3.614-.774-5.679-1.032-2.065-.258-4.131.258-6.454.516-1.29 0-3.614-.258-6.195-.516v.258c.258 2.58.516 4.385.774 6.19z" fill="#FFBFA8"/><path d="M289.853 42.736c-3.098.258-6.195 1.547-9.293 1.547-2.839 0-5.679-.773-8.777-1.29-3.613-.773-7.485-.773-11.358 0-1.807.259-3.872.774-5.937 1.29.517 2.58 1.291 4.901 2.582 6.965.516 0 1.032 0 1.29.258 3.098.516 6.196 1.547 9.293 2.063 3.614.516 7.228.516 10.842 0 3.356-.516 6.454-1.547 9.809-2.321 5.679-1.29 11.616-1.29 17.554-.258.258 0 .774.258 1.032.258 1.033-1.806 1.549-3.87 2.065-5.675-2.065 0-3.872-.516-5.937-.774-4.388-1.547-8.777-2.58-13.165-2.063z" fill="#FFDFAF"/><path d="M288.045 50.99c-3.356.773-6.453 1.805-9.809 2.321a38.169 38.169 0 01-10.842 0c-3.097-.516-6.195-1.29-9.293-2.063-.516 0-.774-.258-1.29-.258 4.646 9.028 13.939 14.96 24.781 14.96 10.842 0 20.393-6.19 25.039-15.476-.258 0-.774-.258-1.032-.258-5.679-.774-11.617-.516-17.554.774z" fill="#FEF0A5"/></svg>