<svg width="80" height="80" fill="none" xmlns="http://www.w3.org/2000/svg"><path d="M80 0H0v79.855h80V0z" fill="#FBF5F1"/><path d="M79.963 33.636c-5.672 2.473-12.618 2.255-18.763 1.855l-38.837 1.818c-7.89-.654-14.618-5.382-22.29-7.382V80h79.89V33.636z" fill="#FFDAD8"/><path d="M79.964 46.8c-1.745.946-3.6 1.236-5.564.873-2.363-.473-4.473-1.928-6.873-2.255-2.981-.436-5.89.982-8.872 1.2-3.2.255-6.4-.763-9.6-.727-3.018.036-5.928 1.018-8.873 1.6-3.89.764-7.927.836-11.818.182-2.182-.364-4.364-.946-6.582-1.091-2.473-.146-4.945.29-7.418.473-3.236.254-10.982-1.091-14.255-1.091V80H80l-.036-33.2z" fill="#FFBFA8"/><path d="M.072 54.036V80h79.891V53.345c-4.909 1.71-10.363 1.091-15.49.146-5.092-.946-10.292-2.182-15.455-1.636-3.6.4-7.128 1.636-10.764 1.672-3.418.037-6.764-.982-10.145-1.527a39.981 39.981 0 00-13.164 0c-4.473.764-10.364 2.29-14.873 2.036z" fill="#FFDFAF"/><path d="M79.963 62.218c-4.109 0-8.327-1.09-12.4-1.782a56.77 56.77 0 00-20.436.328c-3.782.763-7.491 1.89-11.31 2.509a42.42 42.42 0 01-12.508.109c-3.637-.546-7.2-1.527-10.837-2.146-3.636-.581-8.909-.727-12.4.437V80h79.891V62.218z" fill="#FEF0A5"/><path d="M36.8 52.727h6.655v1.819h-2.29v6.581h-2.037v-6.582h-2.29v-1.818H36.8zm17.673 2.437a3.744 3.744 0 01.946-1.382c.4-.4.872-.691 1.454-.91a4.711 4.711 0 011.782-.327c.654 0 1.236.11 1.818.328a4.665 4.665 0 011.455.909c.4.4.727.873.945 1.382a4.71 4.71 0 01.327 1.782 4.71 4.71 0 01-.327 1.781 4.219 4.219 0 01-.945 1.419c-.4.4-.873.727-1.455.945a4.9 4.9 0 01-1.818.327 4.9 4.9 0 01-1.818-.327c-.546-.218-1.019-.546-1.455-.946-.4-.4-.727-.872-.945-1.418a4.711 4.711 0 01-.328-1.781c.037-.655.146-1.237.364-1.782zm2.11 3.09c.18.364.472.692.836.873.363.218.763.328 1.236.328s.873-.11 1.236-.328c.364-.218.618-.509.837-.872.218-.364.29-.837.29-1.31a2.91 2.91 0 00-.29-1.309c-.182-.363-.473-.69-.837-.872-.363-.219-.763-.328-1.273-.328-.472 0-.872.11-1.236.328-.363.218-.618.509-.836.872a3.016 3.016 0 00-.291 1.31c.036.509.145.945.327 1.309zm-26.074 1.019c.327.254.69.363 1.127.363.69 0 1.018-.254 1.018-.8 0-.254-.073-.436-.218-.581-.146-.146-.364-.255-.619-.364-.254-.11-.545-.218-.872-.364a3.875 3.875 0 01-.691-.327 4.641 4.641 0 01-.764-.51 2.236 2.236 0 01-.581-.726c-.146-.291-.219-.655-.219-1.055 0-.473.11-.873.364-1.236.255-.364.618-.618 1.055-.837.436-.181.945-.29 1.527-.29.618 0 1.127.109 1.527.29.4.182.764.437 1.018.728.255.29.437.581.546.872l-1.528.873a2.504 2.504 0 00-.618-.727 1.342 1.342 0 00-.836-.255c-.291 0-.546.073-.691.182-.182.11-.255.291-.255.51 0 .181.073.363.255.508.182.146.436.255.727.364.291.109.618.218.946.364.4.145.763.327 1.09.545a2.4 2.4 0 01.764.836c.182.328.291.728.291 1.237 0 .836-.29 1.49-.873 1.963-.582.437-1.345.691-2.327.691a4 4 0 01-1.454-.29 3.654 3.654 0 01-1.2-.8c-.328-.328-.619-.728-.764-1.2l1.418-.982c.218.4.51.763.837 1.018zm-13.382-4.109a3.744 3.744 0 01.946-1.382c.4-.4.872-.691 1.454-.91a4.711 4.711 0 011.782-.327c.655 0 1.236.11 1.818.328a4.665 4.665 0 011.455.909c.4.4.727.873.945 1.382a4.71 4.71 0 01.328 1.782 4.71 4.71 0 01-.328 1.781 4.219 4.219 0 01-.945 1.419c-.4.4-.873.727-1.455.945a4.9 4.9 0 01-1.818.327 4.9 4.9 0 01-1.818-.327c-.546-.218-1.018-.546-1.455-.946-.4-.4-.727-.872-.945-1.418a4.711 4.711 0 01-.327-1.781c.036-.655.145-1.237.363-1.782zm2.11 3.09c.181.364.472.692.836.873.363.218.763.328 1.236.328s.873-.11 1.236-.328c.364-.218.619-.509.837-.872.218-.364.29-.837.29-1.31 0-.509-.108-.945-.29-1.309-.182-.363-.473-.69-.837-.872-.363-.219-.763-.328-1.272-.328-.473 0-.873.11-1.237.328-.363.218-.618.509-.836.872-.182.364-.29.837-.29 1.31.035.509.145.945.326 1.309zm28.583 1.237h3.636v1.673h-5.601v-8.437h5.6V54.4H47.82v1.491h3.418v1.636H47.82v1.964zm.617-7.745l-1.018-.51 1.818-1.927 1.382.655-2.182 1.782zm4.399-16.256h1.636l-4.109 8.874-4.11-8.873h1.637l2.473 5.927 2.473-5.927zm-13.818 8.437H37.6v-8.436h2.581c.619 0 1.128.109 1.6.327.437.218.8.51 1.055.91.255.4.364.836.364 1.381 0 .618-.182 1.127-.51 1.564-.327.436-.8.727-1.381.909l2.363 3.345h-1.709l-2.145-3.2h-.873v3.2h.073zm1.127-4.363c.473 0 .873-.11 1.164-.364.29-.255.436-.582.436-1.055 0-.436-.145-.8-.436-1.054-.291-.255-.691-.364-1.164-.364h-1.127v2.837h1.127zm-10.4 3.09h3.71v1.237h-5.093v-8.4h5.091v1.236h-3.709v2.037h3.491V40h-3.49v2.654zM18.436 35.49v3.237h4.218v-3.236h1.418v8.4h-1.418v-3.855h-4.218v3.855h-1.418v-8.4h1.418zm40.799 7.165h3.71v1.236h-5.093v-8.4h5.091v1.236h-3.709v2.037h3.491V40h-3.49v2.655zm.691-8.073l-.727-.437 1.818-1.927 1.091.546-2.182 1.818zm-42.18-7.891H21.6v.619h-4.545v-8.4H21.6v.618h-3.854V22.4h3.636v.618h-3.636v3.672zm38.546.619h-.727l3.709-8.728 3.709 8.727h-.728l-1.163-2.836h-3.637l-1.163 2.836zm4.509-3.455l-1.528-3.746-1.563 3.746h3.09zM42.4 27.31h-.654l.982-8.728 3.382 6.473 3.382-6.473.981 8.727h-.654l-.727-6.618-2.946 5.636-2.945-5.636-.8 6.618zm-14.253 0h-.655l.982-8.728 3.382 6.473 3.382-6.473.981 8.727h-.654l-.727-6.618-2.946 5.636-2.945-5.636-.8 6.618z" fill="#4F4C6E"/></svg>