<svg width="360" height="203" fill="none" xmlns="http://www.w3.org/2000/svg"><g clip-path="url(#clip0)"><path fill="#3066FF" d="M-5-4h212v213H-5z"/><path d="M369-64H-9v273h378V-64z" fill="#FBF5F1"/><path d="M368 50.667c-26.698 8.444-59.386 7.699-88.309 6.333l-182.78 6.21C59.771 60.973 28.11 44.83-8 38v171h376V50.667z" fill="#FFDAD8"/><path d="M368.828 95.986c-8.236 3.218-16.988 4.209-26.254 2.97-11.154-1.609-21.107-6.56-32.432-7.674-14.071-1.485-27.799 3.342-41.87 4.085-15.1.867-30.201-2.6-45.302-2.476-14.242.124-27.97 3.466-41.869 5.447-18.361 2.599-37.409 2.847-55.77.619-10.296-1.238-20.591-3.219-31.059-3.714-11.668-.495-23.337.99-35.006 1.61C43.994 97.718 7.444 93.138-8 93.138V209h377l-.172-113.014z" fill="#FFBFA8"/><path d="M-8 120.773V209h376v-90.575c-23.104 5.808-48.776 3.707-72.907.495-23.96-3.213-48.433-7.414-72.735-5.561-16.943 1.359-33.544 5.561-50.658 5.684-16.088.124-31.833-3.336-47.749-5.189-20.537-2.472-41.588-2.472-61.954 0-21.05 2.594-48.775 7.784-69.997 6.919z" fill="#FFDFAF"/><path d="M368 148.662c-19.339 0-39.192-3.702-58.36-6.046-31.832-3.825-64.52-3.455-96.182 1.11-17.798 2.591-35.255 6.417-53.225 8.514a276.147 276.147 0 01-58.873.37c-17.114-1.85-33.886-5.182-51-7.28-17.115-1.974-41.93-2.468-58.36 1.481V209h376v-60.338z" fill="#FEF0A5"/><path d="M274.715-61.89c-1.757 3.006-8.912 12.297-13.254 17.655-4.401 5.412-8.308 11.296-12.877 16.645-7.889 9.152-16.97 18.26-25.571 26.648-8.541 8.332-17.768 16.753-26.92 24.666-7.627 6.603-15.479 6.832-24.871 8.768-9.505 1.931-19.557 3.275-29.285 5.084-7.553 1.377-17.28 7.905-26.613 11.377-8.987 3.314-20.054 4.45-29.545 5.985-4.688.74-12.843-1.656-14.452.39-3.93 4.974 3.96 10.032 9.43 9.66 5.696-.363 10.083.932 19.106-.221 5.595-.708 14.084-5.973 22.095-4.32 5.531 1.108 12.075.889 21.526-1.102-1.396 2.45-4.373 4.617-7.581 6.89-1.865 1.296-6.693 4.362-9.686 6.983-8.688 7.645-13.056 12.149-8.988 15.99 2.912 2.776 12.551 1.873 21.725-6.664 5.829-5.588 19.925-11.902 28.78-11.583 14.703.529 22.709-3.958 35.561-12.021 13.143-8.28 23.742-20.063 36.941-28.285 7.267-4.513 13.503-10.37 20.827-14.881 6.686-4.136 5.68-3.036 11.127-7.5l2.525-70.165z" fill="#fff"/><path d="M170.777 137.98h19.287v5.269h-6.639v19.077h-5.902v-19.077h-6.64v-5.269h-.106zm51.222 7.061c.633-1.581 1.581-2.951 2.74-4.005 1.16-1.159 2.53-2.002 4.216-2.635 1.581-.632 3.267-.948 5.164-.948 1.898 0 3.584.316 5.27.948a13.544 13.544 0 014.216 2.635c1.159 1.159 2.108 2.529 2.74 4.005.632 1.581.949 3.267.949 5.164 0 1.897-.317 3.584-.949 5.165-.632 1.58-1.581 2.951-2.74 4.11-1.159 1.159-2.53 2.108-4.216 2.74-1.581.632-3.372.949-5.27.949-1.897 0-3.688-.317-5.269-.949-1.581-.632-2.951-1.581-4.216-2.74-1.159-1.159-2.108-2.53-2.74-4.11-.633-1.581-.949-3.268-.949-5.165.106-1.897.422-3.583 1.054-5.164zm6.113 8.958c.527 1.054 1.37 2.003 2.424 2.53 1.054.632 2.213.948 3.583.948 1.371 0 2.53-.316 3.584-.948 1.054-.633 1.792-1.476 2.424-2.53.632-1.054.843-2.424.843-3.794 0-1.475-.316-2.74-.843-3.794-.527-1.054-1.37-2.002-2.424-2.529-1.054-.633-2.213-.949-3.689-.949-1.37 0-2.529.316-3.583.949-1.054.632-1.792 1.475-2.424 2.529-.527 1.054-.843 2.424-.843 3.794.105 1.476.421 2.74.948 3.794zm-75.568 2.951c.949.738 2.003 1.054 3.267 1.054 2.003 0 2.951-.737 2.951-2.318 0-.738-.21-1.265-.632-1.687-.422-.421-1.054-.737-1.792-1.054-.737-.316-1.581-.632-2.529-1.053-.632-.211-1.265-.527-2.003-.949-.737-.422-1.475-.843-2.213-1.476-.738-.632-1.265-1.264-1.686-2.107-.422-.844-.633-1.897-.633-3.057 0-1.37.317-2.529 1.054-3.583.738-1.054 1.792-1.792 3.057-2.424 1.265-.527 2.74-.843 4.426-.843 1.792 0 3.268.316 4.427.843 1.159.527 2.213 1.265 2.951 2.108.738.843 1.265 1.686 1.581 2.529l-4.427 2.53c-.527-.949-1.159-1.581-1.791-2.108-.738-.527-1.476-.738-2.424-.738-.844 0-1.581.211-2.003.527-.527.316-.738.843-.738 1.475 0 .527.211 1.054.738 1.476.527.421 1.265.738 2.108 1.054.843.316 1.792.632 2.74 1.054a14.74 14.74 0 013.162 1.581 6.933 6.933 0 012.213 2.424c.527.948.843 2.108.843 3.583 0 2.424-.843 4.321-2.529 5.691-1.686 1.265-3.9 2.003-6.745 2.003-1.476 0-2.846-.316-4.216-.843a10.585 10.585 0 01-3.478-2.319c-.949-.949-1.792-2.108-2.213-3.478l4.11-2.846c.632 1.16 1.476 2.214 2.424 2.951zm-38.785-11.909c.632-1.581 1.581-2.951 2.74-4.005 1.16-1.159 2.53-2.002 4.216-2.635 1.581-.632 3.267-.948 5.164-.948 1.897 0 3.584.316 5.27.948a13.544 13.544 0 014.216 2.635c1.159 1.159 2.108 2.529 2.74 4.005.632 1.581.948 3.267.948 5.164 0 1.897-.316 3.584-.948 5.165-.632 1.58-1.581 2.951-2.74 4.11-1.16 1.159-2.53 2.108-4.216 2.74-1.581.632-3.373.949-5.27.949-1.897 0-3.689-.317-5.269-.949-1.581-.632-2.951-1.581-4.216-2.74-1.159-1.159-2.108-2.53-2.74-4.11-.633-1.581-.949-3.268-.949-5.165.105-1.897.422-3.583 1.054-5.164zm6.113 8.958c.527 1.054 1.37 2.003 2.424 2.53 1.054.632 2.213.948 3.583.948s2.53-.316 3.584-.948c1.054-.633 1.791-1.476 2.424-2.53.632-1.054.843-2.424.843-3.794 0-1.475-.316-2.74-.843-3.794-.527-1.054-1.37-2.002-2.424-2.529-1.054-.633-2.214-.949-3.689-.949-1.37 0-2.53.316-3.584.949-1.053.632-1.791 1.475-2.424 2.529-.527 1.054-.843 2.424-.843 3.794.106 1.476.422 2.74.949 3.794zm82.841 3.584h10.539v4.848h-16.231V137.98h16.231v4.848h-10.539v4.321h9.907v4.743h-9.907v5.691zm1.791-22.449l-2.951-1.475 5.27-5.586 4.005 1.897-6.324 5.164zm12.748-47.11h4.743l-11.91 25.716-11.909-25.716h4.742l7.167 17.179 7.167-17.18zm-40.046 24.451h-4.11V88.024h7.483c1.791 0 3.267.316 4.637.948 1.265.633 2.319 1.476 3.056 2.635.738 1.16 1.054 2.424 1.054 4.005 0 1.792-.527 3.267-1.475 4.532-.949 1.265-2.319 2.108-4.005 2.635l6.85 9.696h-4.953l-6.218-9.275h-2.53v9.275h.211zm3.267-12.647c1.37 0 2.53-.316 3.373-1.054.843-.738 1.265-1.686 1.265-3.057 0-1.264-.422-2.318-1.265-3.056s-2.003-1.054-3.373-1.054h-3.267v8.22h3.267zm-30.144 8.958h10.75v3.584h-14.755V88.024h14.755v3.583h-10.75v5.902h10.118v3.583h-10.118v7.694zm-32.777-20.762v9.38h12.225v-9.38h4.111v24.346h-4.111v-11.172h-12.225v11.172h-4.111V88.024h4.111zm118.25 20.762h10.75v3.583h-14.755V88.023h14.755v3.584h-10.75v5.902h10.118v3.583h-10.118v7.694zm2.002-23.397l-2.108-1.265 5.27-5.586 3.162 1.581-6.324 5.27zM115.551 62.52h11.172v1.791h-13.174V39.966h13.174v1.791h-11.172v8.326h10.54v1.792h-10.54V62.52zm111.717 1.79h-2.108l10.75-25.295 10.75 25.295h-2.107l-3.373-8.22h-10.539l-3.373 8.22zm13.069-10.013l-4.427-10.855-4.532 10.855h8.959zM187.008 64.31h-1.897l2.846-25.295 9.802 18.76 9.801-18.76 2.846 25.295h-1.897l-2.108-19.182-8.537 16.336-8.537-16.336-2.319 19.182zm-41.312 0h-1.897l2.845-25.295 9.802 18.76 9.802-18.76 2.845 25.295h-1.897l-2.108-19.182-8.537 16.336-8.536-16.336-2.319 19.182z" fill="#4F4C6E"/></g><defs><clipPath id="clip0"><path fill="#fff" d="M0 0h360v202.5H0z"/></clipPath></defs></svg>