<svg width="400" height="300" fill="none" xmlns="http://www.w3.org/2000/svg"><g clip-path="url(#clip0)"><path fill="#3066FF" d="M-3-3h209v209H-3z"/><path d="M406-91H-6v397h412V-91z" fill="#FBF5F1"/><path d="M406 76.444c-29.254 12.297-65.072 11.212-96.765 9.223l-200.28 9.041C68.261 91.453 33.569 67.945-6 58v249h412V76.444z" fill="#FFDAD8"/><path d="M405.812 141.31c-9.001 4.718-18.565 6.17-28.691 4.355-12.19-2.359-23.066-9.618-35.443-11.251-15.378-2.178-30.38 4.9-45.757 5.988-16.503 1.271-33.005-3.811-49.508-3.629-15.565.181-30.567 5.081-45.757 7.985-20.065 3.811-40.881 4.174-60.946.907-11.252-1.814-22.504-4.718-33.943-5.444-12.752-.726-25.504 1.452-38.256 2.359-16.69 1.271-56.633-5.444-73.511-5.444V307h412l-.188-165.69z" fill="#FFBFA8"/><path d="M-6 177.843V307h412V174.406c-25.316 8.502-53.446 5.427-79.887.724-26.254-4.703-53.071-10.854-79.7-8.14-18.565 1.99-36.755 8.14-55.508 8.321-17.628.181-34.88-4.884-52.321-7.598-22.503-3.617-45.569-3.617-67.885 0C47.633 171.512 17.254 179.11-6 177.843z" fill="#FFDFAF"/><path d="M406 217.804c-21.191 0-42.944-5.472-63.947-8.937-34.88-5.655-70.698-5.108-105.391 1.641-19.503 3.831-38.631 9.485-58.322 12.586a224.847 224.847 0 01-64.509.547c-18.753-2.736-37.131-7.661-55.884-10.761-18.753-2.919-45.944-3.648-63.947 2.188V307h412v-89.196z" fill="#FEF0A5"/><path d="M412.314-59.24c-1.917 3.57-9.851 14.678-14.678 21.091-4.892 6.48-9.19 13.488-14.281 19.9-8.793 10.976-18.975 21.951-28.628 32.067-9.586 10.05-19.967 20.231-30.281 29.818-8.595 8-17.719 8.595-28.562 11.24-10.975 2.644-22.611 4.628-33.851 7.14-8.727 1.918-19.768 9.918-30.479 14.347-10.314 4.232-23.14 6.017-34.116 8.199-5.421 1.058-15.008-1.389-16.793 1.058-4.364 5.95 5.025 11.504 11.372 10.842 6.612-.66 11.769.662 22.215-1.057 6.479-1.058 16.132-7.538 25.52-5.95 6.48 1.057 14.083.528 24.992-2.183-1.521 2.91-4.892 5.554-8.529 8.33-2.116 1.588-7.603 5.356-10.975 8.53-9.785 9.256-14.678 14.677-9.785 18.975 3.504 3.107 14.678 1.653 24.992-8.661 6.545-6.744 22.677-14.678 32.991-14.678 17.124 0 26.248-5.553 40.86-15.47 14.942-10.183 26.776-24.331 41.785-34.447 8.264-5.554 15.272-12.628 23.603-18.182 7.603-5.09 6.479-3.768 12.628-9.19V-59.24z" fill="#fff"/><path d="M187.082 201.451h27.017v7.382h-9.301v26.722h-8.267v-26.722h-9.301v-7.382h-.148zm71.752 9.891c.886-2.214 2.214-4.133 3.838-5.61 1.624-1.624 3.543-2.805 5.906-3.691 2.214-.885 4.576-1.328 7.234-1.328 2.657 0 5.019.443 7.381 1.328 2.215.886 4.134 2.067 5.906 3.691 1.624 1.624 2.953 3.543 3.838 5.61.886 2.215 1.329 4.577 1.329 7.234 0 2.658-.443 5.02-1.329 7.235-.885 2.214-2.214 4.133-3.838 5.757-1.624 1.624-3.543 2.953-5.906 3.839-2.214.886-4.724 1.328-7.381 1.328-2.658 0-5.167-.442-7.382-1.328-2.214-.886-4.134-2.215-5.905-3.839-1.624-1.624-2.953-3.543-3.839-5.757-.886-2.215-1.329-4.577-1.329-7.235.148-2.657.591-5.019 1.477-7.234zm8.563 12.549c.738 1.477 1.919 2.805 3.395 3.544 1.477.885 3.101 1.328 5.02 1.328 1.919 0 3.543-.443 5.019-1.328 1.477-.886 2.51-2.067 3.396-3.544.886-1.476 1.181-3.395 1.181-5.315 0-2.066-.443-3.838-1.181-5.314-.738-1.477-1.919-2.805-3.396-3.544-1.476-.885-3.1-1.328-5.167-1.328-1.919 0-3.543.443-5.019 1.328-1.477.886-2.51 2.067-3.396 3.544-.738 1.476-1.181 3.395-1.181 5.314.147 2.067.59 3.839 1.329 5.315zm-105.857 4.134c1.329 1.033 2.805 1.476 4.577 1.476 2.805 0 4.134-1.033 4.134-3.248 0-1.033-.296-1.771-.886-2.362-.591-.59-1.477-1.033-2.51-1.476-1.034-.443-2.215-.886-3.543-1.476-.886-.296-1.772-.739-2.805-1.329-1.034-.591-2.067-1.181-3.101-2.067-1.033-.886-1.771-1.772-2.362-2.953-.59-1.181-.886-2.657-.886-4.281 0-1.919.443-3.543 1.477-5.02 1.033-1.476 2.509-2.509 4.281-3.395 1.772-.738 3.839-1.181 6.201-1.181 2.51 0 4.576.443 6.2 1.181 1.624.738 3.101 1.771 4.134 2.952 1.034 1.181 1.772 2.363 2.215 3.544l-6.201 3.543c-.738-1.329-1.624-2.215-2.51-2.953-1.033-.738-2.067-1.033-3.395-1.033-1.181 0-2.215.295-2.805.738-.739.443-1.034 1.181-1.034 2.067 0 .738.295 1.476 1.034 2.067.738.59 1.771 1.033 2.952 1.476 1.181.443 2.51.886 3.839 1.476 1.624.591 3.1 1.329 4.429 2.215a9.729 9.729 0 013.1 3.395c.738 1.329 1.181 2.953 1.181 5.02 0 3.396-1.181 6.053-3.543 7.972-2.362 1.772-5.462 2.805-9.449 2.805-2.067 0-3.986-.443-5.905-1.181a14.81 14.81 0 01-4.872-3.248c-1.329-1.328-2.51-2.952-3.1-4.872l5.757-3.986c.886 1.624 2.067 3.101 3.396 4.134zm-54.329-16.683c.886-2.214 2.214-4.133 3.838-5.61 1.624-1.624 3.543-2.805 5.906-3.691 2.214-.885 4.576-1.328 7.234-1.328 2.657 0 5.019.443 7.381 1.328 2.215.886 4.134 2.067 5.906 3.691 1.624 1.624 2.952 3.543 3.838 5.61.886 2.215 1.329 4.577 1.329 7.234 0 2.658-.443 5.02-1.329 7.235-.886 2.214-2.214 4.133-3.838 5.757-1.624 1.624-3.543 2.953-5.906 3.839-2.214.886-4.724 1.328-7.381 1.328-2.658 0-5.168-.442-7.382-1.328-2.215-.886-4.134-2.215-5.905-3.839-1.624-1.624-2.953-3.543-3.839-5.757-.886-2.215-1.329-4.577-1.329-7.235.148-2.657.591-5.019 1.477-7.234zm8.563 12.549c.738 1.477 1.919 2.805 3.395 3.544 1.476.885 3.1 1.328 5.02 1.328 1.919 0 3.543-.443 5.019-1.328 1.477-.886 2.51-2.067 3.396-3.544.886-1.476 1.181-3.395 1.181-5.315 0-2.066-.443-3.838-1.181-5.314-.738-1.477-1.919-2.805-3.396-3.544-1.476-.885-3.1-1.328-5.167-1.328-1.919 0-3.543.443-5.02 1.328-1.476.886-2.509 2.067-3.395 3.544-.738 1.476-1.181 3.395-1.181 5.314.147 2.067.59 3.839 1.329 5.315zm116.042 5.02h14.763v6.791h-22.735v-34.251h22.735v6.791h-14.763v6.053h13.878v6.644h-13.878v7.972zm2.51-31.446l-4.134-2.067 7.382-7.825 5.61 2.658-8.858 7.234zm17.857-65.992h6.643l-16.682 36.022-16.683-36.022h6.644l10.039 24.064 10.039-24.064zm-56.097 34.251h-5.758v-34.251h10.482c2.51 0 4.577.443 6.496 1.328 1.772.886 3.248 2.067 4.282 3.691 1.033 1.624 1.476 3.396 1.476 5.61 0 2.51-.738 4.577-2.067 6.349-1.329 1.771-3.248 2.952-5.61 3.69l9.596 13.583h-6.939l-8.71-12.992h-3.543v12.992h.295zm4.577-17.716c1.919 0 3.543-.443 4.724-1.477 1.181-1.033 1.772-2.362 1.772-4.281 0-1.772-.591-3.248-1.772-4.281-1.181-1.034-2.805-1.477-4.724-1.477h-4.577v11.516h4.577zm-42.225 12.549h15.059v5.019h-20.669v-34.103h20.669v5.019h-15.059v8.268h14.173v5.019h-14.173v10.778zm-45.915-29.084v13.139h17.126v-13.139h5.758v34.103h-5.758v-15.649h-17.126v15.649h-5.757v-34.103h5.757zm165.644 29.083h15.058v5.02h-20.668v-34.104h20.668v5.02h-15.058v8.268h14.173v5.019h-14.173v10.777zm2.805-32.774l-2.953-1.772 7.382-7.825 4.429 2.215-8.858 7.382zM109.721 95.747h15.649v2.51h-18.454V64.153h18.454v2.51h-15.649v11.663h14.764v2.51h-14.764v14.91zm156.491 2.507h-2.952l15.058-35.432 15.059 35.432h-2.953L285.7 86.74h-14.763l-4.725 11.515zm18.307-14.025l-6.201-15.206-6.348 15.206h12.549zm-74.701 14.025h-2.658l3.986-35.432 13.73 26.279 13.73-26.279 3.986 35.432h-2.657l-2.953-26.87-11.958 22.884-11.958-22.883-3.248 26.87zm-57.87 0h-2.657l3.986-35.432 13.73 26.279 13.73-26.279 3.986 35.432h-2.657l-2.953-26.87-11.958 22.884-11.959-22.883-3.248 26.87z" fill="#4F4C6E"/></g><defs><clipPath id="clip0"><path fill="#fff" d="M0 0h400v300H0z"/></clipPath></defs></svg>