<svg width="523" height="775" fill="none" xmlns="http://www.w3.org/2000/svg"><path d="M90.975 164.344c-29.515 74.207-47.33 122.343-76.56 196.724-13.789 34.568-25.172 80.195 3.53 103.862 8.508 7.174 19.282 10.653 29.065 16.067 30.486 16.938 48.452 50.448 57.722 84.1 9.27 33.652 11.431 69.007 19.555 102.934 7.52 31.406 21.332 62.759 47.102 82.281 23.955 18.017 55.072 23.412 85.21 23.71 128.323 2.237 251.35-77.393 314.586-189.002 63.236-111.608 70.632-249.839 33.663-372.842-20.311-67.608-55.957-134.452-115.689-172.262-37.737-23.928-82.7-34.49-127.218-38.132-57.835-4.572-117.732 2.498-168.965 29.55-51.233 27.053-92.674 75.757-102 133.01z" fill="#FFDFAF"/></svg>