<svg width="563" height="716" fill="none" xmlns="http://www.w3.org/2000/svg"><g clip-path="url(#clip0)"><path d="M130.155.608c58.464-5.481 111.295 30.6 145.094 60.44 33.647 29.84 60.291 68.814 99.876 89.824 41.412 22.075 92.72 22.227 130.935 49.174 33.038 23.446 51.004 63.79 55.571 104.135 7.156 62.115-14.92 126.97-58.616 171.882-41.564 42.628-98.506 65.617-149.205 96.827-61.204 37.604-114.644 87.997-179.503 118.75-64.858 30.753-149.052 37.604-203.253-9.592-48.568-42.019-58.312-112.812-60.444-177.059-2.436-78.1 1.98-156.658 13.246-233.997 8.83-61.202 22.533-123.318 55.572-175.537C12.465 43.235 68.34 1.978 130.154.608z" fill="#FEF0A5"/></g><defs><clipPath id="clip0"><path fill="#fff" transform="translate(-90)" d="M0 0h653v716H0z"/></clipPath></defs></svg>