<svg width="523" height="775" viewBox="0 0 523 775" fill="none" xmlns="http://www.w3.org/2000/svg">
<path d="M90.9752 164.344C61.4598 238.551 43.6456 286.687 14.4145 361.068C0.625998 395.636 -10.7571 441.263 17.9454 464.93C26.4525 472.104 37.2273 475.583 47.0104 480.997C77.4965 497.935 95.4618 531.445 104.732 565.097C114.002 598.749 116.163 634.104 124.287 668.031C131.807 699.437 145.619 730.79 171.389 750.312C195.344 768.329 226.461 773.724 256.599 774.022C384.922 776.259 507.949 696.629 571.185 585.02C634.421 473.412 641.817 335.181 604.848 212.178C584.537 144.57 548.891 77.7255 489.159 39.9162C451.422 15.9884 406.459 5.42522 361.941 1.78442C304.106 -2.78816 244.209 4.28241 192.976 31.3349C141.743 58.3874 100.302 107.091 90.9752 164.344Z" fill="#FFDFAF"/>
</svg>
