<svg width="605" height="884" viewBox="0 0 605 884" fill="none" xmlns="http://www.w3.org/2000/svg">
<g clip-path="url(#clip0)">
<path d="M172.976 224.344C143.46 298.551 125.646 346.687 96.4151 421.068C82.6267 455.636 71.2435 501.263 99.9461 524.93C108.453 532.104 119.228 535.583 129.011 540.997C159.497 557.935 177.463 591.445 186.733 625.097C196.003 658.749 198.164 694.104 206.288 728.031C213.807 759.437 227.619 790.79 253.389 810.311C277.344 828.329 308.461 833.724 338.6 834.021C466.923 836.259 589.949 756.629 653.185 645.02C716.421 533.411 723.817 395.181 686.848 272.178C666.538 204.57 630.891 137.725 571.16 99.9162C533.423 75.9884 488.46 65.4252 443.942 61.7844C386.106 57.2118 326.209 64.2824 274.977 91.3348C223.744 118.387 182.303 167.091 172.976 224.344Z" fill="#FFDFAF"/>
</g>
<defs>
<clipPath id="clip0">
<rect width="640" height="755" fill="white" transform="translate(0.259766 149.114) rotate(-13.4656)"/>
</clipPath>
</defs>
</svg>
