<svg width="563" height="716" viewBox="0 0 563 716" fill="none" xmlns="http://www.w3.org/2000/svg">
<path d="M130.155 0.607503C188.619 -4.87325 241.45 31.2084 275.249 61.0481C308.896 90.8878 335.54 129.862 375.125 150.872C416.537 172.947 467.845 173.099 506.06 200.046C539.098 223.492 557.064 263.836 561.631 304.181C568.787 366.296 546.711 431.151 503.015 476.063C461.451 518.691 404.509 541.68 353.81 572.89C292.606 610.494 239.166 660.887 174.307 691.64C109.449 722.393 25.2548 729.244 -28.9462 682.048C-77.514 640.029 -87.258 569.236 -89.3895 504.989C-91.8255 426.889 -87.4102 348.331 -76.1437 270.992C-67.3132 209.79 -53.6107 147.674 -20.5725 95.4551C12.4658 43.2356 68.3415 1.97769 130.155 0.607503Z" fill="#FEF0A5"/>
</svg>
