<svg height="700pt" viewBox="0 0 700 700" width="700pt" xmlns="http://www.w3.org/2000/svg"><path d="M685 320.7c-9.9 1-25.8 3.8-46 8.3-12.4 2.7-27.9 5.6-34.5 6.6-17.4 2.4-40.7 1.5-76.1-3-63-8-76.1-7.3-142.4 7.8-42.9 9.8-62 12.7-95.5 14.7-38.3 2.3-71.4-.6-123.8-10.7-38-7.3-43.3-7.8-71.2-7.8-19.6 0-30.9.5-52.5 2.7-15.1 1.4-31 2.9-35.3 3.3l-7.7.6v66.5l16.3-2.7c39.4-6.7 77.2-9 114.4-7.2 35.9 1.7 58.8 4.8 108.3 14.6 47.5 9.4 73.8 12.2 99.2 10.6 19.6-1.3 32.3-3.2 67.6-10.1 53.8-10.5 65.4-11.9 97.8-11.9 39.1 0 70.7 3.9 145.4 17.9 11.8 2.2 27.1 5 34 6.1s13.5 2.3 14.8 2.5l2.2.5V320l-5.7.2c-3.2 0-7.4.3-9.3.5z"/></svg>