<svg height="700pt" preserveAspectRatio="xMidYMid meet" viewBox="0 0 700 700" width="700pt" xmlns="http://www.w3.org/2000/svg"><path d="m6850 3793c-99-10-258-38-460-83-124-27-279-56-345-66-174-24-407-15-761 30-630 80-761 73-1424-78-429-98-620-127-955-147-383-23-714 6-1238 107-380 73-433 78-712 78-196 0-309-5-525-27-151-14-310-29-353-33l-77-6v-332-333l163 27c394 67 772 90 1144 72 359-17 588-48 1083-146 475-94 738-122 992-106 196 13 323 32 676 101 538 105 654 119 978 119 391 0 707-39 1454-179 118-22 271-50 340-61s135-23 148-25l22-5v550 550l-57-2c-32 0-74-3-93-5z" transform="matrix(.1 0 0 -.1 0 700)"/></svg>